<mxfile host="65bd71144e">
    <diagram id="p46ZfVs7kIe0Nsib2IUU" name="Page-1">
        <mxGraphModel dx="1002" dy="571" grid="0" gridSize="10" guides="1" tooltips="1" connect="1" arrows="1" fold="1" page="1" pageScale="1" pageWidth="850" pageHeight="1100" background="#000000" math="0" shadow="0">
            <root>
                <mxCell id="0"/>
                <mxCell id="1" parent="0"/>
                <mxCell id="25" value="&lt;h2&gt;How the web works&lt;/h2&gt;" style="rounded=0;whiteSpace=wrap;html=1;strokeColor=#06A254;fontColor=#C4F8E9;fontStyle=1" vertex="1" parent="1">
                    <mxGeometry x="20" y="30" width="320" height="40" as="geometry"/>
                </mxCell>
                <mxCell id="26" value="Client =&amp;gt; Request =&amp;gt; Server =&amp;gt; Response =&amp;gt; Client" style="rounded=0;whiteSpace=wrap;html=1;strokeColor=#06A254;fontColor=#C4F8E9;fontStyle=1" vertex="1" parent="1">
                    <mxGeometry x="20" y="70" width="320" height="70" as="geometry"/>
                </mxCell>
                <mxCell id="28" value="&lt;h2&gt;Program Lifecycle &amp;amp; Event Loop&lt;/h2&gt;" style="rounded=0;whiteSpace=wrap;html=1;strokeColor=#06A254;fontColor=#C4F8E9;fontStyle=1" vertex="1" parent="1">
                    <mxGeometry x="20" y="170" width="390" height="40" as="geometry"/>
                </mxCell>
                <mxCell id="29" value="-&amp;gt; Node.js runs non-blocking JS code and uses an event-driven code (&quot;Event Loop&quot;) for running your logic&lt;br&gt;-&amp;gt; A Node program exists as soon as there is no work to do&lt;br&gt;-&amp;gt; Note: The createServer() event never finishes by default" style="rounded=0;whiteSpace=wrap;html=1;strokeColor=#06A254;fontColor=#C4F8E9;fontStyle=1;align=left;spacingLeft=10;" vertex="1" parent="1">
                    <mxGeometry x="20" y="210" width="390" height="90" as="geometry"/>
                </mxCell>
                <mxCell id="30" value="&lt;h2&gt;Asynchronous Code&lt;/h2&gt;" style="rounded=0;whiteSpace=wrap;html=1;strokeColor=#06A254;fontColor=#C4F8E9;fontStyle=1" vertex="1" parent="1">
                    <mxGeometry x="20" y="330" width="210" height="40" as="geometry"/>
                </mxCell>
                <mxCell id="31" value="-&amp;gt; JS code is non-blocking&lt;br&gt;-&amp;gt; Use callbacks and events&amp;nbsp;&lt;br&gt;=&amp;gt; Order changes!" style="rounded=0;whiteSpace=wrap;html=1;strokeColor=#06A254;fontColor=#C4F8E9;fontStyle=1;align=left;spacingLeft=10;" vertex="1" parent="1">
                    <mxGeometry x="20" y="370" width="210" height="70" as="geometry"/>
                </mxCell>
                <mxCell id="33" value="-&amp;gt; Parse request data in chunck (Stream &amp;amp; Buffers)&lt;br&gt;-&amp;gt; Avoid &quot;double responses&quot;" style="rounded=0;whiteSpace=wrap;html=1;strokeColor=#06A254;fontColor=#C4F8E9;fontStyle=1;align=left;spacingLeft=10;" vertex="1" parent="1">
                    <mxGeometry x="450" y="70" width="320" height="90" as="geometry"/>
                </mxCell>
                <mxCell id="34" value="&lt;h2&gt;Requests &amp;amp; Responses&lt;/h2&gt;" style="rounded=0;whiteSpace=wrap;html=1;strokeColor=#06A254;fontColor=#C4F8E9;fontStyle=1" vertex="1" parent="1">
                    <mxGeometry x="450" y="30" width="320" height="40" as="geometry"/>
                </mxCell>
                <mxCell id="36" value="-&amp;gt; Node.js schips with multiple core modules (http, fs, path, ...)&lt;br&gt;-&amp;gt; Core modules can be imported into any file to be used there&lt;br&gt;-&amp;gt; Import via require('modulename')" style="rounded=0;whiteSpace=wrap;html=1;strokeColor=#06A254;fontColor=#C4F8E9;fontStyle=1;align=left;spacingLeft=10;" vertex="1" parent="1">
                    <mxGeometry x="450" y="210" width="320" height="100" as="geometry"/>
                </mxCell>
                <mxCell id="37" value="&lt;h2&gt;Node.js &amp;amp; Core Modules&lt;/h2&gt;" style="rounded=0;whiteSpace=wrap;html=1;strokeColor=#06A254;fontColor=#C4F8E9;fontStyle=1" vertex="1" parent="1">
                    <mxGeometry x="450" y="170" width="320" height="40" as="geometry"/>
                </mxCell>
                <mxCell id="38" value="-&amp;gt; Import via require('./path-to-file') for custom files.&lt;br&gt;-&amp;gt; Export via module.export or just exports (for multiple exports)" style="rounded=0;whiteSpace=wrap;html=1;strokeColor=#06A254;fontColor=#C4F8E9;fontStyle=1;align=left;spacingLeft=10;" vertex="1" parent="1">
                    <mxGeometry x="450" y="370" width="320" height="90" as="geometry"/>
                </mxCell>
                <mxCell id="39" value="&lt;h2&gt;The Node Module System&lt;/h2&gt;" style="rounded=0;whiteSpace=wrap;html=1;strokeColor=#06A254;fontColor=#C4F8E9;fontStyle=1" vertex="1" parent="1">
                    <mxGeometry x="450" y="330" width="320" height="40" as="geometry"/>
                </mxCell>
            </root>
        </mxGraphModel>
    </diagram>
</mxfile>